<svg width="734" height="574" viewBox="0 0 734 574" fill="none" xmlns="http://www.w3.org/2000/svg">
<g filter="url(#filter0_d_202_4)">
<g filter="url(#filter1_d_202_4)">
<path d="M420.122 70.023L371.665 47.0451C370.273 46.3855 368.656 46.4035 367.28 47.0938L313.595 74.0267C311.904 74.8749 310.837 76.6044 310.837 78.4959V145.537C310.837 147.711 312.241 149.635 314.311 150.299L365.837 166.806C368.469 167.649 371.332 167.366 373.747 166.023L416.099 142.477C419.181 140.764 421.133 137.555 421.236 134.031L422.978 74.6875C423.036 72.7037 421.915 70.8733 420.122 70.023Z" fill="url(#paint0_linear_202_4)"/>
</g>
<g filter="url(#filter2_d_202_4)">
<path d="M352.275 101.951L304.412 82.8227C303.078 82.2895 301.579 82.3559 300.298 83.0049L250.44 108.253C248.726 109.121 247.661 110.894 247.7 112.815L249.045 178.985C249.087 181.022 250.361 182.831 252.265 183.556L301.644 202.356C304.551 203.463 307.806 203.154 310.453 201.522L348.946 177.776C351.815 176.006 353.599 172.909 353.692 169.54L355.418 106.731C355.475 104.637 354.221 102.729 352.275 101.951Z" fill="url(#paint1_linear_202_4)"/>
</g>
<g filter="url(#filter3_d_202_4)">
<path d="M484.115 99.2421L431.582 76.3488C430.259 75.7723 428.752 75.7954 427.447 76.4123L378.054 99.7688C376.273 100.611 375.153 102.42 375.193 104.389L376.556 172.426C376.597 174.472 377.88 176.286 379.796 177.006L429.928 195.854C432.806 196.937 436.023 196.634 438.649 195.034L477.983 171.073C480.74 169.394 482.516 166.487 482.754 163.267L487.104 104.193C487.26 102.075 486.061 100.09 484.115 99.2421Z" fill="url(#paint2_linear_202_4)"/>
</g>
<g filter="url(#filter4_d_202_4)">
<path d="M415.747 127.898L362.05 102.688C360.609 102.011 358.932 102.061 357.534 102.823L306.97 130.354C305.329 131.247 304.323 132.981 304.362 134.849L305.728 200.411C305.77 202.445 307.041 204.251 308.942 204.978L359.547 224.312C362.223 225.335 365.209 225.16 367.748 223.833L411.522 200.955C414.73 199.278 416.781 196 416.886 192.382L418.62 132.569C418.677 130.579 417.549 128.744 415.747 127.898Z" fill="url(#paint3_linear_202_4)"/>
</g>
<path d="M249.271 111.428C247.741 110.726 247.711 108.563 249.22 107.818L297.606 83.9148C300.099 82.6836 302.991 82.5454 305.59 83.5335L339.718 96.5113C343.741 98.041 344.08 103.601 340.273 105.608L296.364 128.755C293.616 130.204 290.35 130.293 287.527 128.997L249.271 111.428Z" fill="url(#paint4_linear_202_4)"/>
<path d="M318.116 74.2575C317.366 73.9067 317.343 72.8487 318.077 72.4654L364.275 48.3367C367.089 46.8672 370.433 46.8208 373.286 48.2117L416.934 69.4886C417.672 69.8481 417.686 70.8938 416.959 71.2737L371.637 94.9576C368.872 96.4022 365.592 96.4742 362.767 95.1522L318.116 74.2575Z" fill="url(#paint5_linear_202_4)"/>
<path d="M307.799 133.66C306.332 132.96 306.268 130.895 307.689 130.106L354.389 104.161C357.261 102.565 360.735 102.482 363.68 103.939L403.799 123.792C407.379 125.563 407.539 130.61 404.078 132.605L364.024 155.689C361.172 157.332 357.695 157.467 354.724 156.05L307.799 133.66Z" fill="url(#paint6_linear_202_4)"/>
<path d="M385.426 102.391C383.085 101.361 383.025 98.0614 385.326 96.9459L425.502 77.4744C428.161 76.1857 431.254 76.1389 433.951 77.3465L481.55 98.6626C483.866 99.6997 483.928 102.965 481.654 104.09L442.335 123.531C439.681 124.843 436.583 124.912 433.873 123.719L385.426 102.391Z" fill="url(#paint7_linear_202_4)"/>
<path d="M282.557 289.755L244.372 266.74C242.777 265.778 240.779 265.783 239.189 266.753L200.408 290.392C199.324 291.053 198.774 292.324 199.033 293.566L209.484 343.695C209.742 344.933 210.459 346.027 211.492 346.757L244.649 370.202C245.29 370.656 246.137 370.692 246.815 370.295L286.587 346.99C290.057 344.957 291.971 341.043 291.446 337.056L285.884 294.836C285.606 292.724 284.381 290.854 282.557 289.755Z" fill="url(#paint8_linear_202_4)"/>
<g filter="url(#filter5_d_202_4)">
<path d="M278.902 219.007L239.713 195.902C238.051 194.922 235.973 194.986 234.374 196.067L186.085 228.704C185.085 229.38 184.588 230.59 184.823 231.774L195.69 286.501C195.927 287.697 196.593 288.765 197.562 289.504L237.367 319.852C238.975 321.078 241.164 321.214 242.912 320.197L283.496 296.587C286.876 294.621 288.8 290.865 288.421 286.973L282.314 224.357C282.097 222.131 280.829 220.143 278.902 219.007Z" fill="url(#paint9_linear_202_4)"/>
</g>
<g filter="url(#filter6_d_202_4)">
<path d="M290.089 139.541L235.663 114.599C234.292 113.971 232.711 113.995 231.36 114.664L174.05 143.057C169.913 145.106 167.717 149.721 168.736 154.224L184.062 221.986C184.343 223.226 185.085 224.312 186.138 225.025L226.253 252.154C229.191 254.141 232.962 254.423 236.163 252.894L283.229 230.422C286.482 228.869 288.647 225.686 288.896 222.091L294.156 146.389C294.358 143.483 292.738 140.755 290.089 139.541Z" fill="url(#paint10_linear_202_4)"/>
</g>
<path d="M335.226 337.517L298.051 313.59C296.58 312.643 294.72 312.534 293.148 313.303L249.6 334.603C248.429 335.176 247.762 336.438 247.949 337.727L253.262 374.493C253.464 375.891 254.248 377.138 255.419 377.926L297.611 406.32C299.163 407.365 301.169 407.455 302.809 406.555L334.816 388.979C338.149 387.148 340.156 383.586 339.994 379.788L338.431 343.105C338.335 340.832 337.139 338.748 335.226 337.517Z" fill="url(#paint11_linear_202_4)"/>
<g filter="url(#filter7_d_202_4)">
<path d="M342.461 265.546L299.689 238.367C298.186 237.412 296.289 237.328 294.708 238.147L239.705 266.637C238.58 267.22 237.942 268.447 238.112 269.703L245.515 324.403C245.709 325.833 246.511 327.11 247.716 327.905L292.235 357.283C293.79 358.309 295.786 358.386 297.414 357.482L340.558 333.548C343.735 331.785 345.707 328.437 345.707 324.803V271.454C345.707 269.059 344.482 266.831 342.461 265.546Z" fill="url(#paint12_linear_202_4)"/>
</g>
<path d="M180.566 149.062C177.109 147.037 177.319 141.971 180.932 140.239L232.144 115.681C234.879 114.37 238.061 114.37 240.796 115.683L275.985 132.579C279.64 134.334 279.797 139.48 276.255 141.454L225.556 169.708C222.463 171.431 218.689 171.391 215.634 169.601L180.566 149.062Z" fill="url(#paint13_linear_202_4)"/>
<g filter="url(#filter8_d_202_4)">
<path d="M355.462 162.614L300.571 137.531C299.156 136.884 297.52 136.933 296.146 137.663L229.89 172.872C226.156 174.856 224.074 178.973 224.689 183.157L235.436 256.266C235.648 257.711 236.482 258.992 237.719 259.77L288.976 292.044C292.481 294.251 296.983 294.069 300.298 291.587L350.155 254.256C352.481 252.514 353.935 249.846 354.137 246.946L359.535 169.467C359.738 166.557 358.115 163.826 355.462 162.614Z" fill="url(#paint14_linear_202_4)"/>
</g>
<path d="M240.326 176.509C236.881 174.592 236.906 169.629 240.37 167.747L293.391 138.937C296.203 137.409 299.576 137.319 302.465 138.695L347.189 159.99C350.772 161.696 351.035 166.696 347.65 168.769L294.91 201.062C291.832 202.946 287.978 203.026 284.825 201.272L240.326 176.509Z" fill="url(#paint15_linear_202_4)"/>
<path d="M478.951 314.343C479.103 312.797 479.964 311.409 481.282 310.587L528.892 280.903C530.423 279.949 532.336 281.351 531.887 283.098L518.072 336.842C517.797 337.913 517.175 338.862 516.303 339.542L476.872 370.265C475.486 371.345 473.481 370.242 473.652 368.493L478.951 314.343Z" fill="url(#paint16_linear_202_4)"/>
<path d="M424.168 358.038C424.442 355.197 425.917 352.609 428.221 350.925L483.457 310.557C484.897 309.505 486.89 310.721 486.613 312.483L477.394 371.146C477.185 372.479 476.446 373.67 475.345 374.45L427.631 408.248C424.138 410.722 419.353 407.949 419.764 403.688L424.168 358.038Z" fill="url(#paint17_linear_202_4)"/>
<g filter="url(#filter9_d_202_4)">
<path d="M483.38 256.827C483.518 255.234 484.41 253.802 485.78 252.977L546.35 216.467C547.887 215.54 549.772 216.951 549.317 218.687L533.865 277.61C533.593 278.648 532.995 279.57 532.158 280.242L481.205 321.131C479.832 322.233 477.809 321.152 477.961 319.399L483.38 256.827Z" fill="url(#paint18_linear_202_4)"/>
</g>
<path d="M307.093 355.139L364.353 349.138L423.445 360.25C424.467 360.443 425.171 361.386 425.065 362.42L419.952 412.129C419.812 413.497 419.114 414.746 418.023 415.584L371.059 451.624C367.652 454.239 362.956 454.386 359.392 451.99L308.644 417.871L302.641 360.633C302.353 357.887 304.346 355.427 307.093 355.139Z" fill="url(#paint19_linear_202_4)"/>
<g filter="url(#filter10_d_202_4)">
<path d="M442.99 130.157L491.538 107.876C494.171 106.667 497.199 106.66 499.838 107.856L560.548 135.375C564.883 137.34 567.232 142.089 566.164 146.727L550.503 214.745C550.21 216.018 549.431 217.125 548.332 217.831L502.431 247.307C498.964 249.534 494.486 249.406 491.151 246.985L448.802 216.233L438.964 137.386C438.586 134.356 440.215 131.431 442.99 130.157Z" fill="url(#paint20_linear_202_4)"/>
</g>
<path d="M452.999 133.977C449.276 132.06 449.417 126.691 453.235 124.972L491.265 107.85C493.912 106.658 496.948 106.676 499.581 107.899L558.202 135.116C560.444 136.157 560.536 139.31 558.358 140.48L517.621 162.367C514.72 163.925 511.238 163.956 508.311 162.449L452.999 133.977Z" fill="url(#paint21_linear_202_4)"/>
<g filter="url(#filter11_d_202_4)">
<path d="M433.07 283.26C433.207 281.78 433.995 280.439 435.22 279.599L489.003 242.709C490.447 241.718 492.377 242.931 492.111 244.662L481.713 312.332C481.514 313.624 480.818 314.787 479.773 315.572L429.952 352.971C428.564 354.013 426.599 352.914 426.76 351.187L433.07 283.26Z" fill="url(#paint22_linear_202_4)"/>
</g>
<g filter="url(#filter12_d_202_4)">
<path d="M373.87 160.477L425.829 132.231C427.194 131.488 428.828 131.424 430.248 132.055L495.847 161.229C499.87 163.018 502.249 167.227 501.708 171.596L492.51 245.783C492.339 247.166 491.598 248.415 490.466 249.228L442.313 283.824C438.787 286.357 434.029 286.326 430.537 283.747L380.058 246.466L370.266 167.488C369.912 164.632 371.342 161.851 373.87 160.477Z" fill="url(#paint23_linear_202_4)"/>
</g>
<g filter="url(#filter13_d_202_4)">
<path d="M303.737 299.439L364.527 292.436L420.618 296.711C426.168 297.134 430.305 302.009 429.82 307.554L425.417 357.866C425.296 359.242 424.612 360.508 423.525 361.361L371.303 402.389C367.864 405.091 363.068 405.245 359.463 402.768L307.235 366.888C306.02 366.053 305.235 364.725 305.09 363.258L299.333 304.897C299.066 302.181 301.026 299.751 303.737 299.439Z" fill="url(#paint24_linear_202_4)"/>
</g>
<path d="M378.177 167.104C374.58 165.292 374.493 160.187 378.027 158.253L423.224 133.515C426.047 131.969 429.441 131.877 432.344 133.267L488.544 160.18C492.185 161.924 492.365 167.042 488.854 169.037L443.291 194.923C440.382 196.576 436.839 196.665 433.851 195.159L378.177 167.104Z" fill="url(#paint25_linear_202_4)"/>
<g filter="url(#filter14_d_202_4)">
<path d="M428.521 204.345L363.542 171.546C362.015 170.775 360.2 170.838 358.731 171.713L296.611 208.692C293.316 210.653 291.433 214.326 291.763 218.146L298.555 296.684C298.686 298.203 299.504 299.58 300.776 300.422L360.596 340.031C363.943 342.247 368.291 342.247 371.638 340.031L429.409 301.779C431.973 300.081 433.613 297.298 433.857 294.232L439.446 223.781C440.089 215.685 435.771 208.005 428.521 204.345Z" fill="url(#paint26_linear_202_4)"/>
</g>
<path d="M302.822 213.886C299.248 212.133 299.056 207.11 302.485 205.089L356.558 173.225C359.622 171.419 363.416 171.377 366.519 173.115L420.6 203.39C424.038 205.314 424.003 210.273 420.54 212.149L367.454 240.909C364.608 242.451 361.192 242.52 358.286 241.095L302.822 213.886Z" fill="url(#paint27_linear_202_4)"/>
<path d="M371.859 258.179C371.859 255.668 373.204 253.349 375.384 252.102L429.939 220.904C433.461 218.89 437.789 221.688 437.398 225.726L430.712 294.824C430.51 296.917 429.377 298.808 427.627 299.975L379.632 331.963C376.309 334.178 371.859 331.796 371.859 327.802V258.179Z" fill="url(#paint28_linear_202_4)"/>
<path d="M515.363 179.718C515.729 177.619 517.03 175.801 518.899 174.779L560.981 151.745C563.263 150.497 565.944 152.545 565.339 155.074L551.258 213.995C550.836 215.761 549.744 217.294 548.213 218.27L509.444 242.983C507.245 244.384 504.429 242.507 504.876 239.938L515.363 179.718Z" fill="url(#paint29_linear_202_4)"/>
<path d="M359.872 257.661C359.872 255.786 358.823 254.068 357.155 253.212L299.423 223.586C295.892 221.774 291.76 224.599 292.166 228.546L298.956 294.554C299.173 296.662 300.334 298.559 302.113 299.711L352.153 332.141C355.48 334.297 359.872 331.909 359.872 327.945V257.661Z" fill="url(#paint30_linear_202_4)"/>
<path d="M283.077 218.334C282.904 216.767 282.002 215.372 280.643 214.572L231.225 185.473C229.057 184.196 226.375 185.995 226.734 188.486L236.28 254.706C236.571 256.73 237.733 258.525 239.46 259.619L285.953 289.095C288.077 290.442 290.816 288.734 290.541 286.233L283.077 218.334Z" fill="url(#paint31_linear_202_4)"/>
<g filter="url(#filter15_d_202_4)">
<path d="M444.4 215.819C444.682 212.564 446.536 209.652 449.367 208.019L496.25 180.986C498.407 179.742 501.052 181.515 500.723 183.982L492.413 246.156C492.15 248.125 491.063 249.889 489.422 251.009L443.555 282.325C441.466 283.752 438.657 282.11 438.875 279.589L444.4 215.819Z" fill="url(#paint32_linear_202_4)"/>
</g>
<path d="M289.338 302.108C289.199 300.583 288.37 299.206 287.088 298.37L241.467 268.637C240.036 267.705 238.171 268.879 238.392 270.572L245.352 323.794C245.538 325.216 246.326 326.49 247.515 327.292L291.002 356.6C292.4 357.542 294.264 356.439 294.112 354.761L289.338 302.108Z" fill="url(#paint33_linear_202_4)"/>
<path d="M437.725 297.878C437.869 296.351 438.705 294.976 439.994 294.145L482.182 266.961C485.837 264.606 490.549 267.716 489.819 272.003L482.943 312.426C482.719 313.748 481.973 314.923 480.873 315.69L441.732 342.969C438.239 345.404 433.495 342.636 433.895 338.397L437.725 297.878Z" fill="url(#paint34_linear_202_4)"/>
<path d="M498.018 263.16C498.222 261.926 498.882 260.814 499.867 260.042L534.763 232.705C538.507 229.771 543.846 233.231 542.698 237.847L532.927 277.143C532.669 278.182 532.084 279.11 531.259 279.792L499.847 305.735C496.282 308.679 490.974 305.623 491.73 301.062L498.018 263.16Z" fill="url(#paint35_linear_202_4)"/>
<path d="M490.611 320.413C490.832 319.239 491.466 318.183 492.398 317.436L526.066 290.463C528.32 288.657 531.574 290.767 530.845 293.562L519.512 336.984C519.227 338.077 518.58 339.041 517.677 339.719L486.036 363.49C484.577 364.586 482.532 363.314 482.87 361.52L490.611 320.413Z" fill="url(#paint36_linear_202_4)"/>
<path d="M431.342 360.529C431.412 359.372 431.981 358.302 432.901 357.597L477.157 323.67C480.034 321.464 484.127 323.919 483.537 327.497L476.653 369.186C476.485 370.199 475.936 371.108 475.117 371.726L435.453 401.694C432.727 403.753 428.841 401.67 429.049 398.26L431.342 360.529Z" fill="url(#paint37_linear_202_4)"/>
<path d="M371.859 348.352C371.859 346.692 372.683 345.14 374.058 344.21L423.647 310.675C427.222 308.257 431.976 311.201 431.404 315.479L425.716 358.04C425.539 359.368 424.836 360.569 423.764 361.374L376.661 396.779C374.684 398.265 371.859 396.854 371.859 394.38V348.352Z" fill="url(#paint38_linear_202_4)"/>
<path d="M296.346 369.101C296.181 367.654 295.393 366.351 294.19 365.533L251.343 336.393C249.912 335.42 248.004 336.6 248.236 338.315L253.271 375.571C253.46 376.974 254.236 378.231 255.405 379.03L297.419 407.735C298.833 408.701 300.729 407.559 300.535 405.857L296.346 369.101Z" fill="url(#paint39_linear_202_4)"/>
<path d="M217.105 183.028C216.846 181.595 215.974 180.346 214.717 179.608L175.134 156.359C172.872 155.03 170.114 157.041 170.687 159.601L184.585 221.726C184.971 223.45 185.994 224.965 187.45 225.966L224.266 251.281C226.464 252.792 229.393 250.899 228.918 248.274L217.105 183.028Z" fill="url(#paint40_linear_202_4)"/>
<path d="M369.679 408.384C369.679 407.12 370.276 405.931 371.289 405.176L415.954 371.891C418.718 369.831 422.619 371.998 422.33 375.433L419.188 412.818C419.096 413.916 418.555 414.927 417.693 415.613L372.925 451.237C371.614 452.279 369.679 451.346 369.679 449.672V408.384Z" fill="url(#paint41_linear_202_4)"/>
<path d="M229.662 263.251C229.443 261.917 228.693 260.728 227.582 259.956L187.463 232.055C185.979 231.023 183.996 232.333 184.362 234.103L195.081 285.848C195.332 287.056 196.02 288.129 197.014 288.861L234.965 316.788C236.409 317.85 238.414 316.622 238.124 314.853L229.662 263.251Z" fill="url(#paint42_linear_202_4)"/>
<path d="M359.872 410.136C359.872 408.486 359.058 406.942 357.697 406.01L309.958 373.329C308.566 372.376 306.693 373.468 306.835 375.149L310.165 414.31C310.289 415.779 311.056 417.118 312.26 417.969L356.718 449.407C358.042 450.344 359.872 449.397 359.872 447.774V410.136Z" fill="url(#paint43_linear_202_4)"/>
<path d="M359.872 348.925C359.872 347.585 359.201 346.334 358.085 345.592L307.942 312.292C305.151 310.439 301.456 312.631 301.744 315.968L305.774 362.644C305.875 363.818 306.489 364.888 307.452 365.567L353.566 398.117C356.215 399.988 359.872 398.093 359.872 394.85V348.925Z" fill="url(#paint44_linear_202_4)"/>
<path d="M241.006 330.781C240.81 329.534 240.15 328.407 239.158 327.626L202.961 299.139C201.489 297.98 199.374 299.3 199.769 301.132L209.086 344.397C209.35 345.626 210.069 346.711 211.097 347.434L243.781 370.417C245.225 371.432 247.18 370.215 246.907 368.471L241.006 330.781Z" fill="url(#paint45_linear_202_4)"/>
</g>
<g filter="url(#filter16_d_202_4)">
<mask id="path-47-outside-1_202_4" maskUnits="userSpaceOnUse" x="34" y="312" width="658" height="147" fill="black">
<rect fill="white" x="34" y="312" width="658" height="147"/>
<path d="M37.3047 315.961H149.316V335.98H103.32V456H83.3008V335.98H37.3047V315.961ZM283.984 365.961C283.984 385.492 275.651 396.625 258.984 399.359L285.352 456H263.184L237.207 400.043H193.359V456H173.34V315.961H250C272.656 315.961 283.984 327.322 283.984 350.043V365.961ZM193.359 380.023H248.926C254.264 380.023 258.105 378.852 260.449 376.508C262.793 374.164 263.965 370.323 263.965 364.984V351.02C263.965 345.681 262.793 341.84 260.449 339.496C258.105 337.152 254.264 335.98 248.926 335.98H193.359V380.023ZM337.5 315.961V456H317.48V315.961H337.5ZM415.527 456L361.523 315.961H383.008L426.562 431.195L470.215 315.961H491.602L437.598 456H415.527ZM535.547 315.961V456H515.527V315.961H535.547ZM633.594 315.961L687.598 456H667.578L655.176 423.773H591.992L579.59 456H559.57L613.574 315.961H633.594ZM599.609 403.754H647.461L623.633 342.035L599.609 403.754Z"/>
</mask>
<path d="M37.3047 315.961H149.316V335.98H103.32V456H83.3008V335.98H37.3047V315.961ZM283.984 365.961C283.984 385.492 275.651 396.625 258.984 399.359L285.352 456H263.184L237.207 400.043H193.359V456H173.34V315.961H250C272.656 315.961 283.984 327.322 283.984 350.043V365.961ZM193.359 380.023H248.926C254.264 380.023 258.105 378.852 260.449 376.508C262.793 374.164 263.965 370.323 263.965 364.984V351.02C263.965 345.681 262.793 341.84 260.449 339.496C258.105 337.152 254.264 335.98 248.926 335.98H193.359V380.023ZM337.5 315.961V456H317.48V315.961H337.5ZM415.527 456L361.523 315.961H383.008L426.562 431.195L470.215 315.961H491.602L437.598 456H415.527ZM535.547 315.961V456H515.527V315.961H535.547ZM633.594 315.961L687.598 456H667.578L655.176 423.773H591.992L579.59 456H559.57L613.574 315.961H633.594ZM599.609 403.754H647.461L623.633 342.035L599.609 403.754Z" fill="url(#paint46_radial_202_4)"/>
<path d="M37.3047 315.961V312.961H34.3047V315.961H37.3047ZM149.316 315.961H152.316V312.961H149.316V315.961ZM149.316 335.98V338.98H152.316V335.98H149.316ZM103.32 335.98V332.98H100.32V335.98H103.32ZM103.32 456V459H106.32V456H103.32ZM83.3008 456H80.3008V459H83.3008V456ZM83.3008 335.98H86.3008V332.98H83.3008V335.98ZM37.3047 335.98H34.3047V338.98H37.3047V335.98ZM37.3047 318.961H149.316V312.961H37.3047V318.961ZM146.316 315.961V335.98H152.316V315.961H146.316ZM149.316 332.98H103.32V338.98H149.316V332.98ZM100.32 335.98V456H106.32V335.98H100.32ZM103.32 453H83.3008V459H103.32V453ZM86.3008 456V335.98H80.3008V456H86.3008ZM83.3008 332.98H37.3047V338.98H83.3008V332.98ZM40.3047 335.98V315.961H34.3047V335.98H40.3047ZM258.984 399.359L258.499 396.399L254.595 397.039L256.265 400.625L258.984 399.359ZM285.352 456V459H290.057L288.071 454.734L285.352 456ZM263.184 456L260.463 457.263L261.269 459H263.184V456ZM237.207 400.043L239.928 398.78L239.122 397.043H237.207V400.043ZM193.359 400.043V397.043H190.359V400.043H193.359ZM193.359 456V459H196.359V456H193.359ZM173.34 456H170.34V459H173.34V456ZM173.34 315.961V312.961H170.34V315.961H173.34ZM193.359 380.023H190.359V383.023H193.359V380.023ZM193.359 335.98V332.98H190.359V335.98H193.359ZM280.984 365.961C280.984 375.334 278.982 382.287 275.333 387.161C271.726 391.979 266.241 395.129 258.499 396.399L259.47 402.32C268.394 400.856 275.409 397.072 280.136 390.757C284.82 384.499 286.984 376.119 286.984 365.961H280.984ZM256.265 400.625L282.632 457.266L288.071 454.734L261.704 398.093L256.265 400.625ZM285.352 453H263.184V459H285.352V453ZM265.905 454.737L239.928 398.78L234.486 401.306L260.463 457.263L265.905 454.737ZM237.207 397.043H193.359V403.043H237.207V397.043ZM190.359 400.043V456H196.359V400.043H190.359ZM193.359 453H173.34V459H193.359V453ZM176.34 456V315.961H170.34V456H176.34ZM173.34 318.961H250V312.961H173.34V318.961ZM250 318.961C260.864 318.961 268.461 321.682 273.364 326.6C278.269 331.519 280.984 339.143 280.984 350.043H286.984C286.984 338.222 284.036 328.805 277.613 322.363C271.188 315.92 261.793 312.961 250 312.961V318.961ZM280.984 350.043V365.961H286.984V350.043H280.984ZM193.359 383.023H248.926V377.023H193.359V383.023ZM248.926 383.023C254.594 383.023 259.403 381.796 262.571 378.629L258.328 374.386C256.808 375.907 253.935 377.023 248.926 377.023V383.023ZM262.571 378.629C265.738 375.462 266.965 370.652 266.965 364.984H260.965C260.965 369.993 259.848 372.866 258.328 374.386L262.571 378.629ZM266.965 364.984V351.02H260.965V364.984H266.965ZM266.965 351.02C266.965 345.352 265.738 340.542 262.571 337.375L258.328 341.617C259.848 343.138 260.965 346.01 260.965 351.02H266.965ZM262.571 337.375C259.403 334.208 254.594 332.98 248.926 332.98V338.98C253.935 338.98 256.808 340.097 258.328 341.617L262.571 337.375ZM248.926 332.98H193.359V338.98H248.926V332.98ZM190.359 335.98V380.023H196.359V335.98H190.359ZM337.5 315.961H340.5V312.961H337.5V315.961ZM337.5 456V459H340.5V456H337.5ZM317.48 456H314.48V459H317.48V456ZM317.48 315.961V312.961H314.48V315.961H317.48ZM334.5 315.961V456H340.5V315.961H334.5ZM337.5 453H317.48V459H337.5V453ZM320.48 456V315.961H314.48V456H320.48ZM317.48 318.961H337.5V312.961H317.48V318.961ZM415.527 456L412.728 457.079L413.469 459H415.527V456ZM361.523 315.961V312.961H357.151L358.724 317.04L361.523 315.961ZM383.008 315.961L385.814 314.9L385.081 312.961H383.008V315.961ZM426.562 431.195L423.756 432.256L426.559 439.672L429.368 432.258L426.562 431.195ZM470.215 315.961V312.961H468.143L467.409 314.898L470.215 315.961ZM491.602 315.961L494.401 317.04L495.974 312.961H491.602V315.961ZM437.598 456V459H439.656L440.397 457.079L437.598 456ZM418.326 454.921L364.323 314.882L358.724 317.04L412.728 457.079L418.326 454.921ZM361.523 318.961H383.008V312.961H361.523V318.961ZM380.202 317.022L423.756 432.256L429.369 430.135L385.814 314.9L380.202 317.022ZM429.368 432.258L473.02 317.024L467.409 314.898L423.757 430.133L429.368 432.258ZM470.215 318.961H491.602V312.961H470.215V318.961ZM488.802 314.882L434.799 454.921L440.397 457.079L494.401 317.04L488.802 314.882ZM437.598 453H415.527V459H437.598V453ZM535.547 315.961H538.547V312.961H535.547V315.961ZM535.547 456V459H538.547V456H535.547ZM515.527 456H512.527V459H515.527V456ZM515.527 315.961V312.961H512.527V315.961H515.527ZM532.547 315.961V456H538.547V315.961H532.547ZM535.547 453H515.527V459H535.547V453ZM518.527 456V315.961H512.527V456H518.527ZM515.527 318.961H535.547V312.961H515.527V318.961ZM633.594 315.961L636.393 314.882L635.652 312.961H633.594V315.961ZM687.598 456V459H691.97L690.397 454.921L687.598 456ZM667.578 456L664.778 457.077L665.518 459H667.578V456ZM655.176 423.773L657.976 422.696L657.236 420.773H655.176V423.773ZM591.992 423.773V420.773H589.932L589.192 422.696L591.992 423.773ZM579.59 456V459H581.65L582.39 457.077L579.59 456ZM559.57 456L556.771 454.921L555.198 459H559.57V456ZM613.574 315.961V312.961H611.516L610.775 314.882L613.574 315.961ZM599.609 403.754L596.814 402.666L595.222 406.754H599.609V403.754ZM647.461 403.754V406.754H651.835L650.26 402.673L647.461 403.754ZM623.633 342.035L626.431 340.955L623.644 333.735L620.837 340.947L623.633 342.035ZM630.795 317.04L684.799 457.079L690.397 454.921L636.393 314.882L630.795 317.04ZM687.598 453H667.578V459H687.598V453ZM670.378 454.923L657.976 422.696L652.376 424.851L664.778 457.077L670.378 454.923ZM655.176 420.773H591.992V426.773H655.176V420.773ZM589.192 422.696L576.79 454.923L582.39 457.077L594.792 424.851L589.192 422.696ZM579.59 453H559.57V459H579.59V453ZM562.369 457.079L616.373 317.04L610.775 314.882L556.771 454.921L562.369 457.079ZM613.574 318.961H633.594V312.961H613.574V318.961ZM599.609 406.754H647.461V400.754H599.609V406.754ZM650.26 402.673L626.431 340.955L620.834 343.116L644.662 404.834L650.26 402.673ZM620.837 340.947L596.814 402.666L602.405 404.842L626.428 343.123L620.837 340.947Z" fill="#042672" mask="url(#path-47-outside-1_202_4)"/>
</g>
<g filter="url(#filter17_d_202_4)">
<mask id="path-49-outside-2_202_4" maskUnits="userSpaceOnUse" x="23" y="477" width="691" height="77" fill="black">
<rect fill="white" x="23" y="477" width="691" height="77"/>
<path d="M26.8145 490.99C26.8145 489.623 27.0749 488.337 27.5957 487.133C28.1165 485.896 28.8327 484.838 29.7441 483.959C30.6556 483.048 31.7135 482.331 32.918 481.811C34.1549 481.257 35.457 480.98 36.8242 480.98H74.8125C76.1797 480.98 77.4655 481.257 78.6699 481.811C79.9069 482.331 80.9811 483.048 81.8926 483.959C82.804 484.838 83.5202 485.896 84.041 487.133C84.5618 488.337 84.8223 489.623 84.8223 490.99V500.023H74.8125V490.99H36.8242V540.99H74.8125V532.006H84.8223V540.99C84.8223 542.357 84.5618 543.66 84.041 544.896C83.5202 546.101 82.804 547.159 81.8926 548.07C80.9811 548.982 79.9069 549.698 78.6699 550.219C77.4655 550.74 76.1797 551 74.8125 551H36.8242C35.457 551 34.1549 550.74 32.918 550.219C31.7135 549.698 30.6556 548.982 29.7441 548.07C28.8327 547.159 28.1165 546.101 27.5957 544.896C27.0749 543.66 26.8145 542.357 26.8145 540.99V490.99ZM160.945 480.98V551H150.936V521.02H110.848V551H100.838V480.98H110.848V511.01H150.936V480.98H160.945ZM209.969 480.98L236.971 551H226.961L220.76 534.887H189.168L182.967 551H172.957L199.959 480.98H209.969ZM192.977 524.877H216.902L204.988 494.018L192.977 524.877ZM258.992 480.98V540.99H294.979V551H248.982V480.98H258.992ZM317 480.98V540.99H352.986V551H306.99V480.98H317ZM364.998 480.98H416.023V490.99H375.008V511.01H410.018V521.02H375.008V540.99H416.023V551H364.998V480.98ZM441.023 551H431.014V480.98H441.023L483.113 535.277V480.98H493.123V551H483.113L441.023 496.703V551ZM511.092 490.99C511.092 489.623 511.352 488.337 511.873 487.133C512.394 485.896 513.11 484.838 514.021 483.959C514.933 483.048 515.991 482.331 517.195 481.811C518.432 481.257 519.734 480.98 521.102 480.98H559.09C560.457 480.98 561.743 481.257 562.947 481.811C564.184 482.331 565.258 483.048 566.17 483.959C567.081 484.838 567.798 485.896 568.318 487.133C568.839 488.337 569.1 489.623 569.1 490.99V500.023H559.09V490.99H521.102V540.99H559.09V523.998H540.096V513.988H569.1V540.99C569.1 542.357 568.839 543.66 568.318 544.896C567.798 546.101 567.081 547.159 566.17 548.07C565.258 548.982 564.184 549.698 562.947 550.219C561.743 550.74 560.457 551 559.09 551H521.102C519.734 551 518.432 550.74 517.195 550.219C515.991 549.698 514.933 548.982 514.021 548.07C513.11 547.159 512.394 546.101 511.873 544.896C511.352 543.66 511.092 542.357 511.092 540.99V490.99ZM587.068 480.98H638.094V490.99H597.078V511.01H632.088V521.02H597.078V540.99H638.094V551H587.068V480.98ZM708.406 505.98C708.406 515.746 704.24 521.312 695.906 522.68L709.09 551H698.006L685.018 523.021H663.094V551H653.084V480.98H691.414C702.742 480.98 708.406 486.661 708.406 498.021V505.98ZM663.094 513.012H690.877C693.546 513.012 695.467 512.426 696.639 511.254C697.811 510.082 698.396 508.161 698.396 505.492V498.51C698.396 495.84 697.811 493.92 696.639 492.748C695.467 491.576 693.546 490.99 690.877 490.99H663.094V513.012Z"/>
</mask>
<path d="M26.8145 490.99C26.8145 489.623 27.0749 488.337 27.5957 487.133C28.1165 485.896 28.8327 484.838 29.7441 483.959C30.6556 483.048 31.7135 482.331 32.918 481.811C34.1549 481.257 35.457 480.98 36.8242 480.98H74.8125C76.1797 480.98 77.4655 481.257 78.6699 481.811C79.9069 482.331 80.9811 483.048 81.8926 483.959C82.804 484.838 83.5202 485.896 84.041 487.133C84.5618 488.337 84.8223 489.623 84.8223 490.99V500.023H74.8125V490.99H36.8242V540.99H74.8125V532.006H84.8223V540.99C84.8223 542.357 84.5618 543.66 84.041 544.896C83.5202 546.101 82.804 547.159 81.8926 548.07C80.9811 548.982 79.9069 549.698 78.6699 550.219C77.4655 550.74 76.1797 551 74.8125 551H36.8242C35.457 551 34.1549 550.74 32.918 550.219C31.7135 549.698 30.6556 548.982 29.7441 548.07C28.8327 547.159 28.1165 546.101 27.5957 544.896C27.0749 543.66 26.8145 542.357 26.8145 540.99V490.99ZM160.945 480.98V551H150.936V521.02H110.848V551H100.838V480.98H110.848V511.01H150.936V480.98H160.945ZM209.969 480.98L236.971 551H226.961L220.76 534.887H189.168L182.967 551H172.957L199.959 480.98H209.969ZM192.977 524.877H216.902L204.988 494.018L192.977 524.877ZM258.992 480.98V540.99H294.979V551H248.982V480.98H258.992ZM317 480.98V540.99H352.986V551H306.99V480.98H317ZM364.998 480.98H416.023V490.99H375.008V511.01H410.018V521.02H375.008V540.99H416.023V551H364.998V480.98ZM441.023 551H431.014V480.98H441.023L483.113 535.277V480.98H493.123V551H483.113L441.023 496.703V551ZM511.092 490.99C511.092 489.623 511.352 488.337 511.873 487.133C512.394 485.896 513.11 484.838 514.021 483.959C514.933 483.048 515.991 482.331 517.195 481.811C518.432 481.257 519.734 480.98 521.102 480.98H559.09C560.457 480.98 561.743 481.257 562.947 481.811C564.184 482.331 565.258 483.048 566.17 483.959C567.081 484.838 567.798 485.896 568.318 487.133C568.839 488.337 569.1 489.623 569.1 490.99V500.023H559.09V490.99H521.102V540.99H559.09V523.998H540.096V513.988H569.1V540.99C569.1 542.357 568.839 543.66 568.318 544.896C567.798 546.101 567.081 547.159 566.17 548.07C565.258 548.982 564.184 549.698 562.947 550.219C561.743 550.74 560.457 551 559.09 551H521.102C519.734 551 518.432 550.74 517.195 550.219C515.991 549.698 514.933 548.982 514.021 548.07C513.11 547.159 512.394 546.101 511.873 544.896C511.352 543.66 511.092 542.357 511.092 540.99V490.99ZM587.068 480.98H638.094V490.99H597.078V511.01H632.088V521.02H597.078V540.99H638.094V551H587.068V480.98ZM708.406 505.98C708.406 515.746 704.24 521.312 695.906 522.68L709.09 551H698.006L685.018 523.021H663.094V551H653.084V480.98H691.414C702.742 480.98 708.406 486.661 708.406 498.021V505.98ZM663.094 513.012H690.877C693.546 513.012 695.467 512.426 696.639 511.254C697.811 510.082 698.396 508.161 698.396 505.492V498.51C698.396 495.84 697.811 493.92 696.639 492.748C695.467 491.576 693.546 490.99 690.877 490.99H663.094V513.012Z" fill="url(#paint47_linear_202_4)"/>
<path d="M27.5957 487.133L30.3493 488.324L30.355 488.31L30.3606 488.297L27.5957 487.133ZM29.7441 483.959L31.8265 486.119L31.8462 486.1L31.8655 486.08L29.7441 483.959ZM32.918 481.811L34.1087 484.564L34.1259 484.557L34.1431 484.549L32.918 481.811ZM78.6699 481.811L77.4174 484.537L77.4613 484.557L77.5058 484.575L78.6699 481.811ZM81.8926 483.959L79.7713 486.08L79.7905 486.1L79.8102 486.119L81.8926 483.959ZM84.041 487.133L81.2761 488.297L81.2817 488.31L81.2874 488.324L84.041 487.133ZM84.8223 500.023V503.023H87.8223V500.023H84.8223ZM74.8125 500.023H71.8125V503.023H74.8125V500.023ZM74.8125 490.99H77.8125V487.99H74.8125V490.99ZM36.8242 490.99V487.99H33.8242V490.99H36.8242ZM36.8242 540.99H33.8242V543.99H36.8242V540.99ZM74.8125 540.99V543.99H77.8125V540.99H74.8125ZM74.8125 532.006V529.006H71.8125V532.006H74.8125ZM84.8223 532.006H87.8223V529.006H84.8223V532.006ZM84.041 544.896L86.7946 546.087L86.8003 546.074L86.8059 546.061L84.041 544.896ZM81.8926 548.07L79.7713 545.949L81.8926 548.07ZM78.6699 550.219L77.5058 547.454L77.4924 547.459L77.4792 547.465L78.6699 550.219ZM32.918 550.219L31.7272 552.972L31.7405 552.978L31.7538 552.984L32.918 550.219ZM29.7441 548.07L27.6228 550.192L29.7441 548.07ZM27.5957 544.896L24.8308 546.061L24.8364 546.074L24.8421 546.087L27.5957 544.896ZM29.8145 490.99C29.8145 490.015 29.9978 489.136 30.3493 488.324L24.8421 485.942C24.1519 487.538 23.8145 489.231 23.8145 490.99H29.8145ZM30.3606 488.297C30.7333 487.412 31.225 486.699 31.8265 486.119L27.6617 481.799C26.4404 482.977 25.4997 484.38 24.8308 485.969L30.3606 488.297ZM31.8655 486.08C32.5045 485.441 33.2452 484.938 34.1087 484.564L31.7272 479.057C30.1819 479.725 28.8067 480.654 27.6228 481.838L31.8655 486.08ZM34.1431 484.549C34.9911 484.17 35.8754 483.98 36.8242 483.98V477.98C35.0387 477.98 33.3188 478.345 31.6929 479.072L34.1431 484.549ZM36.8242 483.98H74.8125V477.98H36.8242V483.98ZM74.8125 483.98C75.7613 483.98 76.6184 484.169 77.4174 484.537L79.9224 479.085C78.3126 478.345 76.5981 477.98 74.8125 477.98V483.98ZM77.5058 484.575C78.4001 484.952 79.1455 485.455 79.7713 486.08L84.0139 481.838C82.8167 480.64 81.4137 479.711 79.8341 479.046L77.5058 484.575ZM79.8102 486.119C80.4117 486.699 80.9034 487.412 81.2761 488.297L86.8059 485.969C86.137 484.38 85.1963 482.977 83.975 481.799L79.8102 486.119ZM81.2874 488.324C81.6389 489.136 81.8223 490.015 81.8223 490.99H87.8223C87.8223 489.231 87.4848 487.538 86.7946 485.942L81.2874 488.324ZM81.8223 490.99V500.023H87.8223V490.99H81.8223ZM84.8223 497.023H74.8125V503.023H84.8223V497.023ZM77.8125 500.023V490.99H71.8125V500.023H77.8125ZM74.8125 487.99H36.8242V493.99H74.8125V487.99ZM33.8242 490.99V540.99H39.8242V490.99H33.8242ZM36.8242 543.99H74.8125V537.99H36.8242V543.99ZM77.8125 540.99V532.006H71.8125V540.99H77.8125ZM74.8125 535.006H84.8223V529.006H74.8125V535.006ZM81.8223 532.006V540.99H87.8223V532.006H81.8223ZM81.8223 540.99C81.8223 541.965 81.6388 542.871 81.2761 543.732L86.8059 546.061C87.4849 544.448 87.8223 542.75 87.8223 540.99H81.8223ZM81.2874 543.706C80.914 544.569 80.4103 545.31 79.7713 545.949L84.0139 550.192C85.1978 549.008 86.1263 547.633 86.7946 546.087L81.2874 543.706ZM79.7713 545.949C79.1455 546.575 78.4001 547.077 77.5058 547.454L79.8341 552.984C81.4137 552.319 82.8167 551.389 84.0139 550.192L79.7713 545.949ZM77.4792 547.465C76.6664 547.817 75.7876 548 74.8125 548V554C76.5717 554 78.2645 553.663 79.8607 552.972L77.4792 547.465ZM74.8125 548H36.8242V554H74.8125V548ZM36.8242 548C35.8492 548 34.9436 547.817 34.0821 547.454L31.7538 552.984C33.3663 553.663 35.0648 554 36.8242 554V548ZM34.1087 547.465C33.2452 547.092 32.5045 546.588 31.8655 545.949L27.6228 550.192C28.8067 551.376 30.1819 552.304 31.7272 552.972L34.1087 547.465ZM31.8655 545.949C31.2264 545.31 30.7227 544.569 30.3493 543.706L24.8421 546.087C25.5104 547.633 26.4389 549.008 27.6228 550.192L31.8655 545.949ZM30.3606 543.732C29.9979 542.871 29.8145 541.965 29.8145 540.99H23.8145C23.8145 542.75 24.1519 544.448 24.8308 546.061L30.3606 543.732ZM29.8145 540.99V490.99H23.8145V540.99H29.8145ZM160.945 480.98H163.945V477.98H160.945V480.98ZM160.945 551V554H163.945V551H160.945ZM150.936 551H147.936V554H150.936V551ZM150.936 521.02H153.936V518.02H150.936V521.02ZM110.848 521.02V518.02H107.848V521.02H110.848ZM110.848 551V554H113.848V551H110.848ZM100.838 551H97.8379V554H100.838V551ZM100.838 480.98V477.98H97.8379V480.98H100.838ZM110.848 480.98H113.848V477.98H110.848V480.98ZM110.848 511.01H107.848V514.01H110.848V511.01ZM150.936 511.01V514.01H153.936V511.01H150.936ZM150.936 480.98V477.98H147.936V480.98H150.936ZM157.945 480.98V551H163.945V480.98H157.945ZM160.945 548H150.936V554H160.945V548ZM153.936 551V521.02H147.936V551H153.936ZM150.936 518.02H110.848V524.02H150.936V518.02ZM107.848 521.02V551H113.848V521.02H107.848ZM110.848 548H100.838V554H110.848V548ZM103.838 551V480.98H97.8379V551H103.838ZM100.838 483.98H110.848V477.98H100.838V483.98ZM107.848 480.98V511.01H113.848V480.98H107.848ZM110.848 514.01H150.936V508.01H110.848V514.01ZM153.936 511.01V480.98H147.936V511.01H153.936ZM150.936 483.98H160.945V477.98H150.936V483.98ZM209.969 480.98L212.768 479.901L212.027 477.98H209.969V480.98ZM236.971 551V554H241.343L239.77 549.921L236.971 551ZM226.961 551L224.161 552.078L224.901 554H226.961V551ZM220.76 534.887L223.56 533.809L222.82 531.887H220.76V534.887ZM189.168 534.887V531.887H187.108L186.368 533.809L189.168 534.887ZM182.967 551V554H185.027L185.767 552.078L182.967 551ZM172.957 551L170.158 549.921L168.585 554H172.957V551ZM199.959 480.98V477.98H197.901L197.16 479.901L199.959 480.98ZM192.977 524.877L190.181 523.789L188.59 527.877H192.977V524.877ZM216.902 524.877V527.877H221.276L219.701 523.796L216.902 524.877ZM204.988 494.018L207.787 492.937L205 485.718L202.193 492.929L204.988 494.018ZM207.17 482.06L234.172 552.079L239.77 549.921L212.768 479.901L207.17 482.06ZM236.971 548H226.961V554H236.971V548ZM229.761 549.922L223.56 533.809L217.96 535.964L224.161 552.078L229.761 549.922ZM220.76 531.887H189.168V537.887H220.76V531.887ZM186.368 533.809L180.167 549.922L185.767 552.078L191.968 535.964L186.368 533.809ZM182.967 548H172.957V554H182.967V548ZM175.756 552.079L202.758 482.06L197.16 479.901L170.158 549.921L175.756 552.079ZM199.959 483.98H209.969V477.98H199.959V483.98ZM192.977 527.877H216.902V521.877H192.977V527.877ZM219.701 523.796L207.787 492.937L202.19 495.098L214.104 525.957L219.701 523.796ZM202.193 492.929L190.181 523.789L195.772 525.965L207.784 495.106L202.193 492.929ZM258.992 480.98H261.992V477.98H258.992V480.98ZM258.992 540.99H255.992V543.99H258.992V540.99ZM294.979 540.99H297.979V537.99H294.979V540.99ZM294.979 551V554H297.979V551H294.979ZM248.982 551H245.982V554H248.982V551ZM248.982 480.98V477.98H245.982V480.98H248.982ZM255.992 480.98V540.99H261.992V480.98H255.992ZM258.992 543.99H294.979V537.99H258.992V543.99ZM291.979 540.99V551H297.979V540.99H291.979ZM294.979 548H248.982V554H294.979V548ZM251.982 551V480.98H245.982V551H251.982ZM248.982 483.98H258.992V477.98H248.982V483.98ZM317 480.98H320V477.98H317V480.98ZM317 540.99H314V543.99H317V540.99ZM352.986 540.99H355.986V537.99H352.986V540.99ZM352.986 551V554H355.986V551H352.986ZM306.99 551H303.99V554H306.99V551ZM306.99 480.98V477.98H303.99V480.98H306.99ZM314 480.98V540.99H320V480.98H314ZM317 543.99H352.986V537.99H317V543.99ZM349.986 540.99V551H355.986V540.99H349.986ZM352.986 548H306.99V554H352.986V548ZM309.99 551V480.98H303.99V551H309.99ZM306.99 483.98H317V477.98H306.99V483.98ZM364.998 480.98V477.98H361.998V480.98H364.998ZM416.023 480.98H419.023V477.98H416.023V480.98ZM416.023 490.99V493.99H419.023V490.99H416.023ZM375.008 490.99V487.99H372.008V490.99H375.008ZM375.008 511.01H372.008V514.01H375.008V511.01ZM410.018 511.01H413.018V508.01H410.018V511.01ZM410.018 521.02V524.02H413.018V521.02H410.018ZM375.008 521.02V518.02H372.008V521.02H375.008ZM375.008 540.99H372.008V543.99H375.008V540.99ZM416.023 540.99H419.023V537.99H416.023V540.99ZM416.023 551V554H419.023V551H416.023ZM364.998 551H361.998V554H364.998V551ZM364.998 483.98H416.023V477.98H364.998V483.98ZM413.023 480.98V490.99H419.023V480.98H413.023ZM416.023 487.99H375.008V493.99H416.023V487.99ZM372.008 490.99V511.01H378.008V490.99H372.008ZM375.008 514.01H410.018V508.01H375.008V514.01ZM407.018 511.01V521.02H413.018V511.01H407.018ZM410.018 518.02H375.008V524.02H410.018V518.02ZM372.008 521.02V540.99H378.008V521.02H372.008ZM375.008 543.99H416.023V537.99H375.008V543.99ZM413.023 540.99V551H419.023V540.99H413.023ZM416.023 548H364.998V554H416.023V548ZM367.998 551V480.98H361.998V551H367.998ZM441.023 551V554H444.023V551H441.023ZM431.014 551H428.014V554H431.014V551ZM431.014 480.98V477.98H428.014V480.98H431.014ZM441.023 480.98L443.394 479.142L442.494 477.98H441.023V480.98ZM483.113 535.277L480.742 537.115L486.113 544.044V535.277H483.113ZM483.113 480.98V477.98H480.113V480.98H483.113ZM493.123 480.98H496.123V477.98H493.123V480.98ZM493.123 551V554H496.123V551H493.123ZM483.113 551L480.742 552.838L481.643 554H483.113V551ZM441.023 496.703L443.394 494.865L438.023 487.936V496.703H441.023ZM441.023 548H431.014V554H441.023V548ZM434.014 551V480.98H428.014V551H434.014ZM431.014 483.98H441.023V477.98H431.014V483.98ZM438.652 482.818L480.742 537.115L485.484 533.439L443.394 479.142L438.652 482.818ZM486.113 535.277V480.98H480.113V535.277H486.113ZM483.113 483.98H493.123V477.98H483.113V483.98ZM490.123 480.98V551H496.123V480.98H490.123ZM493.123 548H483.113V554H493.123V548ZM485.484 549.162L443.394 494.865L438.652 498.541L480.742 552.838L485.484 549.162ZM438.023 496.703V551H444.023V496.703H438.023ZM511.873 487.133L514.627 488.324L514.632 488.31L514.638 488.297L511.873 487.133ZM514.021 483.959L516.104 486.119L516.124 486.1L516.143 486.08L514.021 483.959ZM517.195 481.811L518.386 484.564L518.403 484.557L518.42 484.549L517.195 481.811ZM562.947 481.811L561.695 484.537L561.739 484.557L561.783 484.575L562.947 481.811ZM566.17 483.959L564.049 486.08L564.068 486.1L564.088 486.119L566.17 483.959ZM568.318 487.133L565.553 488.297L565.559 488.31L565.565 488.324L568.318 487.133ZM569.1 500.023V503.023H572.1V500.023H569.1ZM559.09 500.023H556.09V503.023H559.09V500.023ZM559.09 490.99H562.09V487.99H559.09V490.99ZM521.102 490.99V487.99H518.102V490.99H521.102ZM521.102 540.99H518.102V543.99H521.102V540.99ZM559.09 540.99V543.99H562.09V540.99H559.09ZM559.09 523.998H562.09V520.998H559.09V523.998ZM540.096 523.998H537.096V526.998H540.096V523.998ZM540.096 513.988V510.988H537.096V513.988H540.096ZM569.1 513.988H572.1V510.988H569.1V513.988ZM568.318 544.896L571.072 546.087L571.078 546.074L571.083 546.061L568.318 544.896ZM566.17 548.07L564.049 545.949L566.17 548.07ZM562.947 550.219L561.783 547.454L561.77 547.459L561.757 547.465L562.947 550.219ZM517.195 550.219L516.005 552.972L516.018 552.978L516.031 552.984L517.195 550.219ZM514.021 548.07L511.9 550.192L514.021 548.07ZM511.873 544.896L509.108 546.061L509.114 546.074L509.119 546.087L511.873 544.896ZM514.092 490.99C514.092 490.015 514.275 489.136 514.627 488.324L509.119 485.942C508.429 487.538 508.092 489.231 508.092 490.99H514.092ZM514.638 488.297C515.011 487.412 515.502 486.699 516.104 486.119L511.939 481.799C510.718 482.977 509.777 484.38 509.108 485.969L514.638 488.297ZM516.143 486.08C516.782 485.441 517.523 484.938 518.386 484.564L516.005 479.057C514.459 479.725 513.084 480.654 511.9 481.838L516.143 486.08ZM518.42 484.549C519.268 484.17 520.153 483.98 521.102 483.98V477.98C519.316 477.98 517.596 478.345 515.97 479.072L518.42 484.549ZM521.102 483.98H559.09V477.98H521.102V483.98ZM559.09 483.98C560.039 483.98 560.896 484.169 561.695 484.537L564.2 479.085C562.59 478.345 560.875 477.98 559.09 477.98V483.98ZM561.783 484.575C562.677 484.952 563.423 485.455 564.049 486.08L568.291 481.838C567.094 480.64 565.691 479.711 564.111 479.046L561.783 484.575ZM564.088 486.119C564.689 486.699 565.181 487.412 565.553 488.297L571.083 485.969C570.414 484.38 569.474 482.977 568.252 481.799L564.088 486.119ZM565.565 488.324C565.916 489.136 566.1 490.015 566.1 490.99H572.1C572.1 489.231 571.762 487.538 571.072 485.942L565.565 488.324ZM566.1 490.99V500.023H572.1V490.99H566.1ZM569.1 497.023H559.09V503.023H569.1V497.023ZM562.09 500.023V490.99H556.09V500.023H562.09ZM559.09 487.99H521.102V493.99H559.09V487.99ZM518.102 490.99V540.99H524.102V490.99H518.102ZM521.102 543.99H559.09V537.99H521.102V543.99ZM562.09 540.99V523.998H556.09V540.99H562.09ZM559.09 520.998H540.096V526.998H559.09V520.998ZM543.096 523.998V513.988H537.096V523.998H543.096ZM540.096 516.988H569.1V510.988H540.096V516.988ZM566.1 513.988V540.99H572.1V513.988H566.1ZM566.1 540.99C566.1 541.965 565.916 542.871 565.553 543.732L571.083 546.061C571.762 544.448 572.1 542.75 572.1 540.99H566.1ZM565.565 543.706C565.191 544.569 564.688 545.31 564.049 545.949L568.291 550.192C569.475 549.008 570.404 547.633 571.072 546.087L565.565 543.706ZM564.049 545.949C563.423 546.575 562.677 547.077 561.783 547.454L564.111 552.984C565.691 552.319 567.094 551.389 568.291 550.192L564.049 545.949ZM561.757 547.465C560.944 547.817 560.065 548 559.09 548V554C560.849 554 562.542 553.663 564.138 552.972L561.757 547.465ZM559.09 548H521.102V554H559.09V548ZM521.102 548C520.127 548 519.221 547.817 518.359 547.454L516.031 552.984C517.644 553.663 519.342 554 521.102 554V548ZM518.386 547.465C517.523 547.092 516.782 546.588 516.143 545.949L511.9 550.192C513.084 551.376 514.459 552.304 516.005 552.972L518.386 547.465ZM516.143 545.949C515.504 545.31 515 544.569 514.627 543.706L509.119 546.087C509.788 547.633 510.716 549.008 511.9 550.192L516.143 545.949ZM514.638 543.732C514.275 542.871 514.092 541.965 514.092 540.99H508.092C508.092 542.75 508.429 544.448 509.108 546.061L514.638 543.732ZM514.092 540.99V490.99H508.092V540.99H514.092ZM587.068 480.98V477.98H584.068V480.98H587.068ZM638.094 480.98H641.094V477.98H638.094V480.98ZM638.094 490.99V493.99H641.094V490.99H638.094ZM597.078 490.99V487.99H594.078V490.99H597.078ZM597.078 511.01H594.078V514.01H597.078V511.01ZM632.088 511.01H635.088V508.01H632.088V511.01ZM632.088 521.02V524.02H635.088V521.02H632.088ZM597.078 521.02V518.02H594.078V521.02H597.078ZM597.078 540.99H594.078V543.99H597.078V540.99ZM638.094 540.99H641.094V537.99H638.094V540.99ZM638.094 551V554H641.094V551H638.094ZM587.068 551H584.068V554H587.068V551ZM587.068 483.98H638.094V477.98H587.068V483.98ZM635.094 480.98V490.99H641.094V480.98H635.094ZM638.094 487.99H597.078V493.99H638.094V487.99ZM594.078 490.99V511.01H600.078V490.99H594.078ZM597.078 514.01H632.088V508.01H597.078V514.01ZM629.088 511.01V521.02H635.088V511.01H629.088ZM632.088 518.02H597.078V524.02H632.088V518.02ZM594.078 521.02V540.99H600.078V521.02H594.078ZM597.078 543.99H638.094V537.99H597.078V543.99ZM635.094 540.99V551H641.094V540.99H635.094ZM638.094 548H587.068V554H638.094V548ZM590.068 551V480.98H584.068V551H590.068ZM695.906 522.68L695.421 519.719L691.517 520.36L693.187 523.946L695.906 522.68ZM709.09 551V554H713.796L711.81 549.734L709.09 551ZM698.006 551L695.285 552.263L696.091 554H698.006V551ZM685.018 523.021L687.739 521.758L686.932 520.021H685.018V523.021ZM663.094 523.021V520.021H660.094V523.021H663.094ZM663.094 551V554H666.094V551H663.094ZM653.084 551H650.084V554H653.084V551ZM653.084 480.98V477.98H650.084V480.98H653.084ZM663.094 513.012H660.094V516.012H663.094V513.012ZM663.094 490.99V487.99H660.094V490.99H663.094ZM705.406 505.98C705.406 510.471 704.445 513.59 702.88 515.682C701.357 517.716 698.996 519.133 695.421 519.719L696.392 525.64C701.15 524.86 705.039 522.809 707.683 519.277C710.284 515.802 711.406 511.256 711.406 505.98H705.406ZM693.187 523.946L706.37 552.266L711.81 549.734L698.626 521.414L693.187 523.946ZM709.09 548H698.006V554H709.09V548ZM700.727 549.737L687.739 521.758L682.297 524.285L695.285 552.263L700.727 549.737ZM685.018 520.021H663.094V526.021H685.018V520.021ZM660.094 523.021V551H666.094V523.021H660.094ZM663.094 548H653.084V554H663.094V548ZM656.084 551V480.98H650.084V551H656.084ZM653.084 483.98H691.414V477.98H653.084V483.98ZM691.414 483.98C696.614 483.98 699.963 485.282 702.034 487.359C704.107 489.438 705.406 492.801 705.406 498.021H711.406C711.406 491.881 709.874 486.724 706.283 483.122C702.69 479.519 697.543 477.98 691.414 477.98V483.98ZM705.406 498.021V505.98H711.406V498.021H705.406ZM663.094 516.012H690.877V510.012H663.094V516.012ZM690.877 516.012C693.876 516.012 696.765 515.37 698.76 513.375L694.517 509.133C694.169 509.481 693.217 510.012 690.877 510.012V516.012ZM698.76 513.375C700.755 511.38 701.396 508.491 701.396 505.492H695.396C695.396 507.832 694.866 508.784 694.517 509.133L698.76 513.375ZM701.396 505.492V498.51H695.396V505.492H701.396ZM701.396 498.51C701.396 495.511 700.755 492.622 698.76 490.627L694.517 494.869C694.866 495.218 695.396 496.17 695.396 498.51H701.396ZM698.76 490.627C696.765 488.631 693.876 487.99 690.877 487.99V493.99C693.217 493.99 694.169 494.521 694.517 494.869L698.76 490.627ZM690.877 487.99H663.094V493.99H690.877V487.99ZM660.094 490.99V513.012H666.094V490.99H660.094Z" fill="#434343" mask="url(#path-49-outside-2_202_4)"/>
</g>
<defs>
<filter id="filter0_d_202_4" x="118.488" y="0.562943" width="497.932" height="507.128" filterUnits="userSpaceOnUse" color-interpolation-filters="sRGB">
<feFlood flood-opacity="0" result="BackgroundImageFix"/>
<feColorMatrix in="SourceAlpha" type="matrix" values="0 0 0 0 0 0 0 0 0 0 0 0 0 0 0 0 0 0 127 0" result="hardAlpha"/>
<feOffset dy="4"/>
<feGaussianBlur stdDeviation="25"/>
<feColorMatrix type="matrix" values="0 0 0 0 0.00221199 0 0 0 0 0.173687 0 0 0 0 0.50655 0 0 0 0.5 0"/>
<feBlend mode="normal" in2="BackgroundImageFix" result="effect1_dropShadow_202_4"/>
<feBlend mode="normal" in="SourceGraphic" in2="effect1_dropShadow_202_4" result="shape"/>
</filter>
<filter id="filter1_d_202_4" x="300.837" y="40.5629" width="132.143" height="140.72" filterUnits="userSpaceOnUse" color-interpolation-filters="sRGB">
<feFlood flood-opacity="0" result="BackgroundImageFix"/>
<feColorMatrix in="SourceAlpha" type="matrix" values="0 0 0 0 0 0 0 0 0 0 0 0 0 0 0 0 0 0 127 0" result="hardAlpha"/>
<feOffset dy="4"/>
<feGaussianBlur stdDeviation="5"/>
<feColorMatrix type="matrix" values="0 0 0 0 0 0 0 0 0 0.23957 0 0 0 0 0.752934 0 0 0 1 0"/>
<feBlend mode="normal" in2="BackgroundImageFix" result="effect1_dropShadow_202_4"/>
<feBlend mode="normal" in="SourceGraphic" in2="effect1_dropShadow_202_4" result="shape"/>
</filter>
<filter id="filter2_d_202_4" x="242.699" y="72.4656" width="127.721" height="140.545" filterUnits="userSpaceOnUse" color-interpolation-filters="sRGB">
<feFlood flood-opacity="0" result="BackgroundImageFix"/>
<feColorMatrix in="SourceAlpha" type="matrix" values="0 0 0 0 0 0 0 0 0 0 0 0 0 0 0 0 0 0 127 0" result="hardAlpha"/>
<feOffset dx="5"/>
<feGaussianBlur stdDeviation="5"/>
<feColorMatrix type="matrix" values="0 0 0 0 0.00780523 0 0 0 0 0.194893 0 0 0 0 0.595797 0 0 0 1 0"/>
<feBlend mode="normal" in2="BackgroundImageFix" result="effect1_dropShadow_202_4"/>
<feBlend mode="normal" in="SourceGraphic" in2="effect1_dropShadow_202_4" result="shape"/>
</filter>
<filter id="filter3_d_202_4" x="365.192" y="69.9324" width="131.926" height="140.562" filterUnits="userSpaceOnUse" color-interpolation-filters="sRGB">
<feFlood flood-opacity="0" result="BackgroundImageFix"/>
<feColorMatrix in="SourceAlpha" type="matrix" values="0 0 0 0 0 0 0 0 0 0 0 0 0 0 0 0 0 0 127 0" result="hardAlpha"/>
<feOffset dy="4"/>
<feGaussianBlur stdDeviation="5"/>
<feColorMatrix type="matrix" values="0 0 0 0 0 0 0 0 0 0.23957 0 0 0 0 0.752934 0 0 0 1 0"/>
<feBlend mode="normal" in2="BackgroundImageFix" result="effect1_dropShadow_202_4"/>
<feBlend mode="normal" in="SourceGraphic" in2="effect1_dropShadow_202_4" result="shape"/>
</filter>
<filter id="filter4_d_202_4" x="299.361" y="94.2138" width="134.261" height="142.757" filterUnits="userSpaceOnUse" color-interpolation-filters="sRGB">
<feFlood flood-opacity="0" result="BackgroundImageFix"/>
<feColorMatrix in="SourceAlpha" type="matrix" values="0 0 0 0 0 0 0 0 0 0 0 0 0 0 0 0 0 0 127 0" result="hardAlpha"/>
<feOffset dx="5" dy="2"/>
<feGaussianBlur stdDeviation="5"/>
<feColorMatrix type="matrix" values="0 0 0 0 0.00780523 0 0 0 0 0.194893 0 0 0 0 0.595797 0 0 0 1 0"/>
<feBlend mode="normal" in2="BackgroundImageFix" result="effect1_dropShadow_202_4"/>
<feBlend mode="normal" in="SourceGraphic" in2="effect1_dropShadow_202_4" result="shape"/>
</filter>
<filter id="filter5_d_202_4" x="174.765" y="175.21" width="123.703" height="145.666" filterUnits="userSpaceOnUse" color-interpolation-filters="sRGB">
<feFlood flood-opacity="0" result="BackgroundImageFix"/>
<feColorMatrix in="SourceAlpha" type="matrix" values="0 0 0 0 0 0 0 0 0 0 0 0 0 0 0 0 0 0 127 0" result="hardAlpha"/>
<feOffset dy="-10"/>
<feGaussianBlur stdDeviation="5"/>
<feColorMatrix type="matrix" values="0 0 0 0 0 0 0 0 0 0.23957 0 0 0 0 0.752934 0 0 0 1 0"/>
<feBlend mode="normal" in2="BackgroundImageFix" result="effect1_dropShadow_202_4"/>
<feBlend mode="normal" in="SourceGraphic" in2="effect1_dropShadow_202_4" result="shape"/>
</filter>
<filter id="filter6_d_202_4" x="158.488" y="108.145" width="145.685" height="159.726" filterUnits="userSpaceOnUse" color-interpolation-filters="sRGB">
<feFlood flood-opacity="0" result="BackgroundImageFix"/>
<feColorMatrix in="SourceAlpha" type="matrix" values="0 0 0 0 0 0 0 0 0 0 0 0 0 0 0 0 0 0 127 0" result="hardAlpha"/>
<feOffset dy="4"/>
<feGaussianBlur stdDeviation="5"/>
<feColorMatrix type="matrix" values="0 0 0 0 0.0019832 0 0 0 0 0.145854 0 0 0 0 0.454148 0 0 0 1 0"/>
<feBlend mode="normal" in2="BackgroundImageFix" result="effect1_dropShadow_202_4"/>
<feBlend mode="normal" in="SourceGraphic" in2="effect1_dropShadow_202_4" result="shape"/>
</filter>
<filter id="filter7_d_202_4" x="228.085" y="231.587" width="127.621" height="140.523" filterUnits="userSpaceOnUse" color-interpolation-filters="sRGB">
<feFlood flood-opacity="0" result="BackgroundImageFix"/>
<feColorMatrix in="SourceAlpha" type="matrix" values="0 0 0 0 0 0 0 0 0 0 0 0 0 0 0 0 0 0 127 0" result="hardAlpha"/>
<feOffset dy="4"/>
<feGaussianBlur stdDeviation="5"/>
<feColorMatrix type="matrix" values="0 0 0 0 0 0 0 0 0 0.23957 0 0 0 0 0.752934 0 0 0 1 0"/>
<feBlend mode="normal" in2="BackgroundImageFix" result="effect1_dropShadow_202_4"/>
<feBlend mode="normal" in="SourceGraphic" in2="effect1_dropShadow_202_4" result="shape"/>
</filter>
<filter id="filter8_d_202_4" x="224.582" y="134.079" width="144.97" height="166.503" filterUnits="userSpaceOnUse" color-interpolation-filters="sRGB">
<feFlood flood-opacity="0" result="BackgroundImageFix"/>
<feColorMatrix in="SourceAlpha" type="matrix" values="0 0 0 0 0 0 0 0 0 0 0 0 0 0 0 0 0 0 127 0" result="hardAlpha"/>
<feOffset dx="5" dy="2"/>
<feGaussianBlur stdDeviation="2.5"/>
<feColorMatrix type="matrix" values="0 0 0 0 0.00780523 0 0 0 0 0.194893 0 0 0 0 0.595797 0 0 0 1 0"/>
<feBlend mode="normal" in2="BackgroundImageFix" result="effect1_dropShadow_202_4"/>
<feBlend mode="normal" in="SourceGraphic" in2="effect1_dropShadow_202_4" result="shape"/>
</filter>
<filter id="filter9_d_202_4" x="467.953" y="210.173" width="91.4333" height="125.403" filterUnits="userSpaceOnUse" color-interpolation-filters="sRGB">
<feFlood flood-opacity="0" result="BackgroundImageFix"/>
<feColorMatrix in="SourceAlpha" type="matrix" values="0 0 0 0 0 0 0 0 0 0 0 0 0 0 0 0 0 0 127 0" result="hardAlpha"/>
<feOffset dy="4"/>
<feGaussianBlur stdDeviation="5"/>
<feColorMatrix type="matrix" values="0 0 0 0 0 0 0 0 0 0.23957 0 0 0 0 0.752934 0 0 0 1 0"/>
<feBlend mode="normal" in2="BackgroundImageFix" result="effect1_dropShadow_202_4"/>
<feBlend mode="normal" in="SourceGraphic" in2="effect1_dropShadow_202_4" result="shape"/>
</filter>
<filter id="filter10_d_202_4" x="428.91" y="100.964" width="147.51" height="161.929" filterUnits="userSpaceOnUse" color-interpolation-filters="sRGB">
<feFlood flood-opacity="0" result="BackgroundImageFix"/>
<feColorMatrix in="SourceAlpha" type="matrix" values="0 0 0 0 0 0 0 0 0 0 0 0 0 0 0 0 0 0 127 0" result="hardAlpha"/>
<feOffset dy="4"/>
<feGaussianBlur stdDeviation="5"/>
<feColorMatrix type="matrix" values="0 0 0 0 0 0 0 0 0 0.23957 0 0 0 0 0.752934 0 0 0 1 0"/>
<feBlend mode="normal" in2="BackgroundImageFix" result="effect1_dropShadow_202_4"/>
<feBlend mode="normal" in="SourceGraphic" in2="effect1_dropShadow_202_4" result="shape"/>
</filter>
<filter id="filter11_d_202_4" x="416.751" y="236.353" width="85.385" height="131.024" filterUnits="userSpaceOnUse" color-interpolation-filters="sRGB">
<feFlood flood-opacity="0" result="BackgroundImageFix"/>
<feColorMatrix in="SourceAlpha" type="matrix" values="0 0 0 0 0 0 0 0 0 0 0 0 0 0 0 0 0 0 127 0" result="hardAlpha"/>
<feOffset dy="4"/>
<feGaussianBlur stdDeviation="5"/>
<feColorMatrix type="matrix" values="0 0 0 0 0 0 0 0 0 0.23957 0 0 0 0 0.752934 0 0 0 1 0"/>
<feBlend mode="normal" in2="BackgroundImageFix" result="effect1_dropShadow_202_4"/>
<feBlend mode="normal" in="SourceGraphic" in2="effect1_dropShadow_202_4" result="shape"/>
</filter>
<filter id="filter12_d_202_4" x="370.213" y="120.624" width="151.571" height="174.079" filterUnits="userSpaceOnUse" color-interpolation-filters="sRGB">
<feFlood flood-opacity="0" result="BackgroundImageFix"/>
<feColorMatrix in="SourceAlpha" type="matrix" values="0 0 0 0 0 0 0 0 0 0 0 0 0 0 0 0 0 0 127 0" result="hardAlpha"/>
<feOffset dx="10" dy="-1"/>
<feGaussianBlur stdDeviation="5"/>
<feColorMatrix type="matrix" values="0 0 0 0 0 0 0 0 0 0.23957 0 0 0 0 0.752934 0 0 0 1 0"/>
<feBlend mode="normal" in2="BackgroundImageFix" result="effect1_dropShadow_202_4"/>
<feBlend mode="normal" in="SourceGraphic" in2="effect1_dropShadow_202_4" result="shape"/>
</filter>
<filter id="filter13_d_202_4" x="289.309" y="286.436" width="150.549" height="132.09" filterUnits="userSpaceOnUse" color-interpolation-filters="sRGB">
<feFlood flood-opacity="0" result="BackgroundImageFix"/>
<feColorMatrix in="SourceAlpha" type="matrix" values="0 0 0 0 0 0 0 0 0 0 0 0 0 0 0 0 0 0 127 0" result="hardAlpha"/>
<feOffset dy="4"/>
<feGaussianBlur stdDeviation="5"/>
<feColorMatrix type="matrix" values="0 0 0 0 0 0 0 0 0 0.23957 0 0 0 0 0.752934 0 0 0 1 0"/>
<feBlend mode="normal" in2="BackgroundImageFix" result="effect1_dropShadow_202_4"/>
<feBlend mode="normal" in="SourceGraphic" in2="effect1_dropShadow_202_4" result="shape"/>
</filter>
<filter id="filter14_d_202_4" x="286.726" y="166.009" width="167.783" height="190.683" filterUnits="userSpaceOnUse" color-interpolation-filters="sRGB">
<feFlood flood-opacity="0" result="BackgroundImageFix"/>
<feColorMatrix in="SourceAlpha" type="matrix" values="0 0 0 0 0 0 0 0 0 0 0 0 0 0 0 0 0 0 127 0" result="hardAlpha"/>
<feOffset dx="5" dy="5"/>
<feGaussianBlur stdDeviation="5"/>
<feColorMatrix type="matrix" values="0 0 0 0 0 0 0 0 0 0.23957 0 0 0 0 0.752934 0 0 0 1 0"/>
<feBlend mode="normal" in2="BackgroundImageFix" result="effect1_dropShadow_202_4"/>
<feBlend mode="normal" in="SourceGraphic" in2="effect1_dropShadow_202_4" result="shape"/>
</filter>
<filter id="filter15_d_202_4" x="428.863" y="175.578" width="81.8876" height="122.276" filterUnits="userSpaceOnUse" color-interpolation-filters="sRGB">
<feFlood flood-opacity="0" result="BackgroundImageFix"/>
<feColorMatrix in="SourceAlpha" type="matrix" values="0 0 0 0 0 0 0 0 0 0 0 0 0 0 0 0 0 0 127 0" result="hardAlpha"/>
<feOffset dy="5"/>
<feGaussianBlur stdDeviation="5"/>
<feColorMatrix type="matrix" values="0 0 0 0 0.00780523 0 0 0 0 0.194893 0 0 0 0 0.595797 0 0 0 1 0"/>
<feBlend mode="normal" in2="BackgroundImageFix" result="effect1_dropShadow_202_4"/>
<feBlend mode="normal" in="SourceGraphic" in2="effect1_dropShadow_202_4" result="shape"/>
</filter>
<filter id="filter16_d_202_4" x="37.3047" y="315.961" width="660.293" height="146.039" filterUnits="userSpaceOnUse" color-interpolation-filters="sRGB">
<feFlood flood-opacity="0" result="BackgroundImageFix"/>
<feColorMatrix in="SourceAlpha" type="matrix" values="0 0 0 0 0 0 0 0 0 0 0 0 0 0 0 0 0 0 127 0" result="hardAlpha"/>
<feOffset dx="8" dy="4"/>
<feGaussianBlur stdDeviation="1"/>
<feComposite in2="hardAlpha" operator="out"/>
<feColorMatrix type="matrix" values="0 0 0 0 0.0505556 0 0 0 0 0.134767 0 0 0 0 0.433333 0 0 0 0.54 0"/>
<feBlend mode="normal" in2="BackgroundImageFix" result="effect1_dropShadow_202_4"/>
<feBlend mode="normal" in="SourceGraphic" in2="effect1_dropShadow_202_4" result="shape"/>
</filter>
<filter id="filter17_d_202_4" x="26.8145" y="480.98" width="692.275" height="76.0195" filterUnits="userSpaceOnUse" color-interpolation-filters="sRGB">
<feFlood flood-opacity="0" result="BackgroundImageFix"/>
<feColorMatrix in="SourceAlpha" type="matrix" values="0 0 0 0 0 0 0 0 0 0 0 0 0 0 0 0 0 0 127 0" result="hardAlpha"/>
<feOffset dx="8" dy="4"/>
<feGaussianBlur stdDeviation="1"/>
<feComposite in2="hardAlpha" operator="out"/>
<feColorMatrix type="matrix" values="0 0 0 0 0.0505556 0 0 0 0 0.134767 0 0 0 0 0.433333 0 0 0 0.54 0"/>
<feBlend mode="normal" in2="BackgroundImageFix" result="effect1_dropShadow_202_4"/>
<feBlend mode="normal" in="SourceGraphic" in2="effect1_dropShadow_202_4" result="shape"/>
</filter>
<linearGradient id="paint0_linear_202_4" x1="366.955" y1="46" x2="366.955" y2="168.128" gradientUnits="userSpaceOnUse">
<stop stop-color="#92DCF0"/>
<stop offset="1" stop-color="#5FCADF"/>
</linearGradient>
<linearGradient id="paint1_linear_202_4" x1="301.575" y1="81.984" x2="301.575" y2="204.112" gradientUnits="userSpaceOnUse">
<stop stop-color="#92DCF0"/>
<stop offset="1" stop-color="#5FCADF"/>
</linearGradient>
<linearGradient id="paint2_linear_202_4" x1="431.246" y1="75.4415" x2="431.246" y2="197.569" gradientUnits="userSpaceOnUse">
<stop stop-color="#92DCF0"/>
<stop offset="1" stop-color="#5FCADF"/>
</linearGradient>
<linearGradient id="paint3_linear_202_4" x1="361.507" y1="101.612" x2="361.507" y2="225.92" gradientUnits="userSpaceOnUse">
<stop stop-color="#92DCF0"/>
<stop offset="1" stop-color="#5FCADF"/>
</linearGradient>
<linearGradient id="paint4_linear_202_4" x1="297.761" y1="81.984" x2="297.761" y2="131.053" gradientUnits="userSpaceOnUse">
<stop stop-color="#40A4EA"/>
<stop offset="1" stop-color="#5FCADF"/>
</linearGradient>
<linearGradient id="paint5_linear_202_4" x1="367.5" y1="46" x2="367.5" y2="97.25" gradientUnits="userSpaceOnUse">
<stop stop-color="#26B8BA"/>
<stop offset="1" stop-color="#074BDD"/>
</linearGradient>
<linearGradient id="paint6_linear_202_4" x1="358.238" y1="101.612" x2="358.238" y2="158.314" gradientUnits="userSpaceOnUse">
<stop stop-color="#26B8BA"/>
<stop offset="1" stop-color="#074BDD"/>
</linearGradient>
<linearGradient id="paint7_linear_202_4" x1="433.425" y1="75.4415" x2="433.425" y2="125.601" gradientUnits="userSpaceOnUse">
<stop stop-color="#40A4EA"/>
<stop offset="1" stop-color="#5FCADF"/>
</linearGradient>
<linearGradient id="paint8_linear_202_4" x1="245.457" y1="265.176" x2="245.457" y2="370.947" gradientUnits="userSpaceOnUse">
<stop stop-color="#92DCF0"/>
<stop offset="1" stop-color="#5FCADF"/>
</linearGradient>
<linearGradient id="paint9_linear_202_4" x1="236.739" y1="194.298" x2="236.739" y2="321.878" gradientUnits="userSpaceOnUse">
<stop stop-color="#92DCF0"/>
<stop offset="1" stop-color="#5FCADF"/>
</linearGradient>
<linearGradient id="paint10_linear_202_4" x1="230.746" y1="113.606" x2="230.746" y2="255.362" gradientUnits="userSpaceOnUse">
<stop stop-color="#92DCF0"/>
<stop offset="1" stop-color="#5FCADF"/>
</linearGradient>
<linearGradient id="paint11_linear_202_4" x1="293.947" y1="312.064" x2="293.947" y2="408.021" gradientUnits="userSpaceOnUse">
<stop stop-color="#92DCF0"/>
<stop offset="1" stop-color="#5FCADF"/>
</linearGradient>
<linearGradient id="paint12_linear_202_4" x1="291.768" y1="236.824" x2="291.768" y2="358.952" gradientUnits="userSpaceOnUse">
<stop stop-color="#92DCF0"/>
<stop offset="1" stop-color="#5FCADF"/>
</linearGradient>
<linearGradient id="paint13_linear_202_4" x1="228.567" y1="113.606" x2="228.567" y2="172.489" gradientUnits="userSpaceOnUse">
<stop stop-color="#26B8BA"/>
<stop offset="1" stop-color="#074BDD"/>
</linearGradient>
<linearGradient id="paint14_linear_202_4" x1="291.768" y1="136.505" x2="291.768" y2="295.707" gradientUnits="userSpaceOnUse">
<stop stop-color="#92DCF0"/>
<stop offset="1" stop-color="#5FCADF"/>
</linearGradient>
<linearGradient id="paint15_linear_202_4" x1="293.947" y1="136.505" x2="293.947" y2="204.112" gradientUnits="userSpaceOnUse">
<stop stop-color="#40A4EA"/>
<stop offset="1" stop-color="#5FCADF"/>
</linearGradient>
<linearGradient id="paint16_linear_202_4" x1="503.164" y1="278.261" x2="503.164" y2="373.128" gradientUnits="userSpaceOnUse">
<stop stop-color="#92DCF0"/>
<stop offset="1" stop-color="#5FCADF"/>
</linearGradient>
<linearGradient id="paint17_linear_202_4" x1="453.039" y1="307.702" x2="453.039" y2="414.564" gradientUnits="userSpaceOnUse">
<stop stop-color="#92DCF0"/>
<stop offset="1" stop-color="#5FCADF"/>
</linearGradient>
<linearGradient id="paint18_linear_202_4" x1="514.061" y1="213.926" x2="514.061" y2="324.059" gradientUnits="userSpaceOnUse">
<stop stop-color="#92DCF0"/>
<stop offset="1" stop-color="#5FCADF"/>
</linearGradient>
<linearGradient id="paint19_linear_202_4" x1="362.597" y1="349.138" x2="362.597" y2="456" gradientUnits="userSpaceOnUse">
<stop stop-color="#92DCF0"/>
<stop offset="1" stop-color="#5FCADF"/>
</linearGradient>
<linearGradient id="paint20_linear_202_4" x1="503.164" y1="105.973" x2="503.164" y2="251" gradientUnits="userSpaceOnUse">
<stop stop-color="#92DCF0"/>
<stop offset="1" stop-color="#5FCADF"/>
</linearGradient>
<linearGradient id="paint21_linear_202_4" x1="503.709" y1="105.973" x2="503.709" y2="164.856" gradientUnits="userSpaceOnUse">
<stop stop-color="#26B8BA"/>
<stop offset="1" stop-color="#074BDD"/>
</linearGradient>
<linearGradient id="paint22_linear_202_4" x1="459.577" y1="248.819" x2="459.577" y2="355.681" gradientUnits="userSpaceOnUse">
<stop stop-color="#92DCF0"/>
<stop offset="1" stop-color="#5FCADF"/>
</linearGradient>
<linearGradient id="paint23_linear_202_4" x1="436.15" y1="131.053" x2="436.15" y2="288.074" gradientUnits="userSpaceOnUse">
<stop stop-color="#92DCF0"/>
<stop offset="1" stop-color="#5FCADF"/>
</linearGradient>
<linearGradient id="paint24_linear_202_4" x1="364.776" y1="292.436" x2="364.776" y2="406.931" gradientUnits="userSpaceOnUse">
<stop stop-color="#92DCF0"/>
<stop offset="1" stop-color="#5FCADF"/>
</linearGradient>
<linearGradient id="paint25_linear_202_4" x1="433.425" y1="131.053" x2="433.425" y2="197.569" gradientUnits="userSpaceOnUse">
<stop stop-color="#40A4EA"/>
<stop offset="1" stop-color="#5FCADF"/>
</linearGradient>
<linearGradient id="paint26_linear_202_4" x1="365.866" y1="170.309" x2="365.866" y2="343.686" gradientUnits="userSpaceOnUse">
<stop stop-color="#92DCF0"/>
<stop offset="1" stop-color="#5FCADF"/>
</linearGradient>
<linearGradient id="paint27_linear_202_4" x1="361.507" y1="170.309" x2="361.507" y2="243.367" gradientUnits="userSpaceOnUse">
<stop stop-color="#26B8BA"/>
<stop offset="1" stop-color="#074BDD"/>
</linearGradient>
<linearGradient id="paint28_linear_202_4" x1="405.094" y1="216.106" x2="405.094" y2="337.144" gradientUnits="userSpaceOnUse">
<stop offset="0.0630631" stop-color="#074BDD"/>
<stop offset="1" stop-color="#010F2D"/>
</linearGradient>
<linearGradient id="paint29_linear_202_4" x1="535.31" y1="148.5" x2="535.31" y2="246.638" gradientUnits="userSpaceOnUse">
<stop offset="0.0630631" stop-color="#074BDD"/>
<stop offset="1" stop-color="#010F2D"/>
</linearGradient>
<linearGradient id="paint30_linear_202_4" x1="325.548" y1="219.378" x2="325.548" y2="337.144" gradientUnits="userSpaceOnUse">
<stop offset="0.0630631" stop-color="#5FCADF"/>
<stop offset="1" stop-color="#03349D"/>
</linearGradient>
<linearGradient id="paint31_linear_202_4" x1="258.533" y1="182.303" x2="258.533" y2="292.436" gradientUnits="userSpaceOnUse">
<stop stop-color="#430BA1"/>
<stop offset="1" stop-color="#040269"/>
</linearGradient>
<linearGradient id="paint32_linear_202_4" x1="474.288" y1="182.848" x2="456.284" y2="285.889" gradientUnits="userSpaceOnUse">
<stop offset="0.0287583" stop-color="#00D1FF"/>
<stop offset="1" stop-color="#000EFF"/>
</linearGradient>
<linearGradient id="paint33_linear_202_4" x1="266.16" y1="266.266" x2="266.16" y2="358.952" gradientUnits="userSpaceOnUse">
<stop offset="0.0630631" stop-color="#5FCADF"/>
<stop offset="1" stop-color="#03349D"/>
</linearGradient>
<linearGradient id="paint34_linear_202_4" x1="462.302" y1="260.814" x2="462.302" y2="349.138" gradientUnits="userSpaceOnUse">
<stop offset="0.0630631" stop-color="#074BDD"/>
<stop offset="1" stop-color="#010F2D"/>
</linearGradient>
<linearGradient id="paint35_linear_202_4" x1="521.783" y1="227.853" x2="507.615" y2="314.564" gradientUnits="userSpaceOnUse">
<stop offset="0.0287583" stop-color="#00D1FF"/>
<stop offset="1" stop-color="#000EFF"/>
</linearGradient>
<linearGradient id="paint36_linear_202_4" x1="507.523" y1="284.803" x2="507.523" y2="366.585" gradientUnits="userSpaceOnUse">
<stop offset="0.0630631" stop-color="#074BDD"/>
<stop offset="1" stop-color="#010F2D"/>
</linearGradient>
<linearGradient id="paint37_linear_202_4" x1="460.761" y1="321.58" x2="446.924" y2="407.299" gradientUnits="userSpaceOnUse">
<stop offset="0.0287583" stop-color="#00D1FF"/>
<stop offset="1" stop-color="#000EFF"/>
</linearGradient>
<linearGradient id="paint38_linear_202_4" x1="406.578" y1="308.793" x2="391.778" y2="400.8" gradientUnits="userSpaceOnUse">
<stop offset="0.0287583" stop-color="#00D1FF"/>
<stop offset="1" stop-color="#000EFF"/>
</linearGradient>
<linearGradient id="paint39_linear_202_4" x1="274.333" y1="333.872" x2="274.333" y2="410.202" gradientUnits="userSpaceOnUse">
<stop stop-color="#430BA1"/>
<stop offset="1" stop-color="#040269"/>
</linearGradient>
<linearGradient id="paint40_linear_202_4" x1="199.69" y1="152.862" x2="199.69" y2="255.362" gradientUnits="userSpaceOnUse">
<stop offset="0.0630631" stop-color="#5FCADF"/>
<stop offset="1" stop-color="#03349D"/>
</linearGradient>
<linearGradient id="paint41_linear_202_4" x1="396.376" y1="366.585" x2="396.376" y2="453.819" gradientUnits="userSpaceOnUse">
<stop offset="0.0630631" stop-color="#074BDD"/>
<stop offset="1" stop-color="#010F2D"/>
</linearGradient>
<linearGradient id="paint42_linear_202_4" x1="211.132" y1="229.191" x2="211.132" y2="319.697" gradientUnits="userSpaceOnUse">
<stop stop-color="#430BA1"/>
<stop offset="1" stop-color="#040269"/>
</linearGradient>
<linearGradient id="paint43_linear_202_4" x1="333.175" y1="370.947" x2="312.445" y2="440.181" gradientUnits="userSpaceOnUse">
<stop offset="0.0630631" stop-color="#5FCADF"/>
<stop offset="0.753239" stop-color="#03349D"/>
</linearGradient>
<linearGradient id="paint44_linear_202_4" x1="330.451" y1="307.702" x2="330.451" y2="402.569" gradientUnits="userSpaceOnUse">
<stop stop-color="#430BA1"/>
<stop offset="1" stop-color="#040269"/>
</linearGradient>
<linearGradient id="paint45_linear_202_4" x1="223.118" y1="295.707" x2="223.118" y2="373.128" gradientUnits="userSpaceOnUse">
<stop offset="0.0630631" stop-color="#5FCADF"/>
<stop offset="1" stop-color="#03349D"/>
</linearGradient>
<radialGradient id="paint46_radial_202_4" cx="0" cy="0" r="1" gradientUnits="userSpaceOnUse" gradientTransform="translate(370.231 296.684) rotate(90.771) scale(202.763 685.848)">
<stop stop-color="#55BDE3"/>
<stop offset="0.440626" stop-color="#1A8FC8"/>
<stop offset="0.77848" stop-color="#042B80"/>
</radialGradient>
<linearGradient id="paint47_linear_202_4" x1="367" y1="476" x2="367" y2="574" gradientUnits="userSpaceOnUse">
<stop stop-color="#444444"/>
<stop offset="1" stop-color="#929292"/>
</linearGradient>
</defs>
</svg>
